<svg xmlns="http://www.w3.org/2000/svg" viewBox="0 0 128 128">
  <g id="g">
    <path d="M13.68,35.77c0-6.73,5.57-10.16,19.77-11.03-.31-2.69-2.34-4.33-6.37-4.33-2.9,0-5.78,1.12-9.16,2.81l-3.18-5.84c4.17-2.38,8.96-4.07,14.06-4.07,8.45,0,13.57,4.39,13.57,13.6v17.18h-7.28l-.64-3.39h-.23c-3.04,2.28-6.8,4.11-10.65,4.11-6.08,0-9.88-4.01-9.88-9.06ZM33.45,35.05v-4.92c-8.84.44-11.22,2.36-11.22,4.93,0,1.93,1.63,2.87,4.15,2.87,2.68,0,4.94-1.23,7.07-2.88Z"/>
    <path d="M58.63,40.83h-.23l-.75,3.27h-6.97V1.67h8.92v10.35l-.33,4.73h.23c2.23-2.16,5.28-3.43,8.21-3.43,7.5,0,12.11,6.01,12.11,15.22,0,10.36-6.3,16.28-13,16.28-2.78,0-5.72-1.38-8.19-4ZM70.69,28.69c0-5.39-1.77-8.07-5.55-8.07-1.91,0-3.67.81-5.54,2.79v12.12c1.68,1.48,3.59,1.99,5.18,1.99,3.25,0,5.91-2.61,5.91-8.83Z"/>
    <path d="M86.72,29.09c0-10,8.12-15.77,17.38-15.77,4.74,0,8.74,1.68,11.25,4.08l-4.1,5.53c-2.29-1.67-4.4-2.41-6.66-2.41-5.17,0-8.74,3.36-8.74,8.57s3.51,8.54,8.44,8.54c3.15,0,5.75-1.37,7.91-2.87l3.6,5.63c-3.62,3.04-8.25,4.43-12.35,4.43-9.47,0-16.73-5.76-16.73-15.74Z"/>
    <path d="M12.82,101.78c0-9.83,6.32-15.77,12.85-15.77,3.29,0,5.54,1.17,7.58,3.23h.21l-.42-4.65v-10.24h8.92v42.43h-7.27l-.64-3.09h-.23c-2.2,2.18-5.32,3.82-8.32,3.82-7.68,0-12.68-5.92-12.68-15.74ZM33.04,107.42v-12.12c-1.62-1.48-3.27-1.99-5.03-1.99-3.25,0-6.06,2.65-6.06,8.37s2.18,8.54,5.82,8.54c2.03,0,3.71-.75,5.27-2.79Z"/>
    <path d="M70.74,73.78h7.46l-19.96,52.7h-7.46l19.96-52.7Z"/>
    <path d="M86.89,86.6h27.88v6.29h-27.88v-6.29ZM86.89,100.7h27.88v6.29h-27.88v-6.29Z"/>
  </g>
  <style>
    #g { fill: #000 }
    @media (prefers-color-scheme: dark) {
      #g { fill: #fff }
    }
  </style>
</svg>